PathFileType	4	(X/Y/Z)	E:\Qualisys_Data\Carbon_Farble_Plate\Data\Amateur_Runner\S2\T3\S2T3V21_c3d.trc
DataRate	CameraRate	NumFrames	NumMarkers	Units	OrigDataRate	OrigDataStartFrame	OrigNumFrames
200.000000	200.000000	5	39	mm	200.000000	112	301
Frame#	Time	LSHO			RSHO			LICST			RICST			LASIS			LHEEL			RASIS			LTROC			RTROC			SACR			LTH1			LSK4			LTH2			LTH3			RHM5			LSK2			LTH4			RTH1			LTOE			RTH2			RTH3			RTH4			LLEP			RLEP			LSK1			LSK3			RSK1			LHM5			RSK2			LFT1			RSK3			RSK4			LLME			RLME			RTOE			RHEEL			RFT1			RFT2			LFT2			
		X1	Y1	Z1	X2	Y2	Z2	X3	Y3	Z3	X4	Y4	Z4	X5	Y5	Z5	X6	Y6	Z6	X7	Y7	Z7	X8	Y8	Z8	X9	Y9	Z9	X10	Y10	Z10	X11	Y11	Z11	X12	Y12	Z12	X13	Y13	Z13	X14	Y14	Z14	X15	Y15	Z15	X16	Y16	Z16	X17	Y17	Z17	X18	Y18	Z18	X19	Y19	Z19	X20	Y20	Z20	X21	Y21	Z21	X22	Y22	Z22	X23	Y23	Z23	X24	Y24	Z24	X25	Y25	Z25	X26	Y26	Z26	X27	Y27	Z27	X28	Y28	Z28	X29	Y29	Z29	X30	Y30	Z30	X31	Y31	Z31	X32	Y32	Z32	X33	Y33	Z33	X34	Y34	Z34	X35	Y35	Z35	X36	Y36	Z36	X37	Y37	Z37	X38	Y38	Z38	X39	Y39	Z39	

113	0.56	-600.0147094726562	1428.958129882812	-512.934326171875	-588.8847045898438	1432.217895507812	-192.7583465576172	-684.773193359375	983.90234375	-477.6315307617188	-651.5955810546875	971.6737060546876	-175.0523529052734	-628.767822265625	934.888671875	-466.9595947265625	-1038.548583984375	150.8710174560547	-350.802734375	-593.7603759765625	926.2674560546876	-206.6404724121094	-765.6900024414062	869.0676879882812	-462.5618896484375	-729.3463745117188	865.4033203125	-165.7381439208984	-756.1473999023438	1023.249755859375	-318.2682189941406	-676.7411499023438	619.5062255859375	-482.8916015625	-903.9839477539062	308.319580078125	-442.3273315429688	-757.80078125	628.0471801757812	-476.0952453613281	-686.7156372070312	518.0162353515625	-458.6755065917969	-835.33251953125	246.7233734130859	-178.2292633056641	-848.5629272460938	388.9657897949219	-462.2906799316406	-769.6060791015625	530.6724853515625	-451.8690490722656	-484.8333129882812	665.7777709960938	-163.4336853027344	-815.3842163085938	65.60480499267578	-381.6560668945312	-558.1207275390625	633.6681518554688	-154.4956665039062	-447.6216735839844	572.14208984375	-181.3324432373047	-523.987548828125	542.4494018554688	-173.5951385498047	-738.752197265625	478.5462951660156	-455.9280090332031	-489.4224548339844	527.6267700195312	-172.0753173828125	-783.287841796875	345.27783203125	-453.5526428222656	-840.0364990234375	263.6129150390625	-437.2892456054688	-558.2000732421875	444.3270874023438	-178.37353515625	-882.3552856445312	64.9944076538086	-437.0492553710938	-585.6317749023438	519.7383422851562	-170.5029602050781	-1036.355712890625	120.9149169921875	-322.0875244140625	-654.1649780273438	409.4750366210938	-185.340576171875	-678.5584716796875	485.512939453125	-180.0454559326172	-970.1502075195312	147.2732238769531	-408.3363342285156	-841.8240356445312	379.4127197265625	-206.4342041015625	-791.8291015625	193.4197540283203	-232.6977691650391	-884.7059936523438	427.0694580078125	-265.7729797363281	-900.1228637695312	404.2822875976562	-294.4990234375	-907.6863403320312	417.6646118164062	-245.6679229736328	-1047.818481445312	119.1456909179688	-372.6676635742188
114	0.565	-577.8787231445312	1433.702880859375	-511.3838195800781	-572.4091796875	1436.882446289062	-192.0816040039062	-662.1900634765625	987.0916137695312	-477.4161071777344	-631.390625	976.8407592773438	-174.8157348632812	-607.5099487304688	937.975830078125	-466.4673767089844	-1033.230224609375	157.9048614501953	-352.1975402832031	-573.8546142578125	931.2281494140624	-206.3629608154297	-745.8770751953125	873.7767944335938	-462.0943908691406	-708.4395751953125	871.1016845703125	-164.5216064453125	-735.6578369140625	1027.771850585938	-319.2404479980469	-662.2262573242188	622.6561889648438	-481.2053833007812	-897.6002197265625	315.471923828125	-443.0748596191406	-743.3492431640625	634.1622314453125	-477.0498046875	-675.2687377929688	522.4991455078125	-457.5412292480469	-796.8876342773438	238.0271911621094	-178.3514099121094	-841.2982788085938	395.7587585449219	-463.3405151367188	-758.2077026367188	537.0927734375	-452.7303466796875	-462.8585815429688	673.8002319335938	-163.8068695068359	-814.1141967773438	65.6741714477539	-382.1184387207031	-535.237548828125	640.5342407226562	-155.8921508789062	-423.792724609375	581.0745239257812	-181.9608001708984	-499.6837768554688	549.7781372070312	-174.2754211425781	-729.776123046875	483.8033752441406	-456.2151489257812	-464.5673522949219	535.2037353515625	-173.5155334472656	-776.661376953125	351.2057189941406	-454.5755310058594	-833.8479614257812	270.2243041992188	-439.0884399414062	-530.801513671875	448.3763427734375	-179.2871551513672	-881.1336059570312	66.04246520996094	-437.7001342773438	-561.983154296875	522.729736328125	-170.3760986328125	-1032.219116210938	128.0371398925781	-322.8570861816406	-624.8582763671875	409.2356567382812	-185.8524627685547	-652.9864501953125	483.7989196777344	-179.9241180419922	-964.28271484375	153.2380828857422	-409.5107727050781	-810.980224609375	369.6503295898438	-207.1909790039062	-749.5950317382812	187.0146179199219	-232.8922424316406	-854.532958984375	414.2685241699219	-265.0915832519531	-870.740234375	390.9837951660156	-295.993896484375	-879.3140258789062	404.3080139160156	-246.0088806152344	-1043.403442382812	126.5927505493164	-373.2980651855469
115	0.57	-556.187255859375	1438.724853515625	-510.0563659667969	-555.4532470703125	1441.768432617188	-191.4142913818359	-640.1300048828125	991.460205078125	-477.0380249023438	-611.2662963867188	981.94580078125	-174.549072265625	-586.3781127929688	940.9888305664062	-465.9086608886719	-1026.355712890625	166.2649383544922	-353.5218811035156	-554.0901489257812	936.4539184570312	-206.4581604003906	-726.465576171875	878.878173828125	-461.4144287109375	-687.4654541015625	876.5108032226562	-163.2606353759766	-714.9231567382812	1031.965087890625	-320.4671020507812	-647.8414916992188	626.6272583007812	-479.5352172851562	-890.1546630859375	322.6819763183594	-444.3296203613281	-729.1123046875	640.2183837890625	-476.3289794921875	-663.631591796875	526.7057495117188	-456.0689697265625	-757.3073120117188	229.7039947509766	-178.0771789550781	-833.6517333984375	402.9955749511719	-464.190673828125	-746.6742553710938	543.9970703125	-452.8156433105469	-440.7474365234375	681.5427856445312	-164.2444763183594	-813.0326538085938	65.47767639160156	-383.0787658691406	-512.7737426757812	647.3746948242188	-156.5701446533203	-400.4573669433594	589.8890991210938	-182.8438720703125	-475.5118408203125	557.4501953125	-174.4762268066406	-719.914794921875	489.6837768554688	-456.427490234375	-440.6785888671875	543.5846557617188	-173.5588989257812	-769.2869873046875	357.8542785644531	-455.7594299316406	-826.9570922851562	277.1243286132812	-440.7144775390625	-503.7115478515625	453.1938171386719	-178.909423828125	-879.1057739257812	67.30017852783203	-438.1705322265625	-539.1702270507812	525.158203125	-170.1462554931641	-1026.129272460938	136.6545104980469	-323.9179992675781	-595.8374633789062	409.0539855957031	-186.0004272460938	-627.9102172851562	481.7383117675781	-180.1985778808594	-958.2879028320312	159.6610717773438	-411.7160034179688	-779.9666137695312	359.8647766113281	-208.1983032226562	-707.2913818359375	181.4196166992188	-232.7893371582031	-825.7689819335938	401.6715393066406	-266.0058898925781	-833.4090576171875	377.4228820800781	-296.3084411621094	-850.867919921875	389.9622802734375	-247.1761932373047	-1037.885009765625	134.9069213867188	-374.2294616699219
116	0.575	-534.1734008789062	1443.97802734375	-508.5704650878906	-538.3436279296875	1446.597412109375	-190.8029479980469	-617.3731079101562	994.9935913085938	-476.6448974609375	-590.8430786132812	987.1973266601562	-174.4543914794922	-564.9224243164062	944.2064208984376	-465.5189819335938	-1017.9453125	175.9559783935547	-355.0593872070312	-533.736328125	941.4625244140624	-206.376953125	-706.0286254882812	883.91064453125	-461.2613525390625	-666.5631713867188	882.152587890625	-161.5399932861328	-693.8463134765625	1036.466918945312	-321.1886901855469	-632.4959106445312	630.576171875	-478.5459594726562	-882.1013793945312	330.3675537109375	-446.3162841796875	-713.7623901367188	646.9390869140625	-477.2578735351562	-652.1043701171875	531.3934936523438	-455.338623046875	-717.9760131835938	221.2489624023438	-178.4762268066406	-825.511962890625	410.5999755859375	-464.9458312988281	-734.8624877929688	550.6841430664062	-453.4309997558594	-419.3949584960938	689.1815795898438	-164.5299224853516	-810.6929931640625	65.19276428222656	-383.9316711425781	-490.2006225585938	653.8883666992188	-157.0964965820312	-377.4113464355469	597.9591674804688	-183.4824829101562	-452.2850036621094	564.6519775390625	-175.4030303955078	-710.141357421875	495.8245544433594	-457.1487121582031	-417.5194091796875	550.5269775390625	-174.6035461425781	-761.3935546875	365.2603454589844	-457.373046875	-819.406982421875	284.4091491699219	-442.9867248535156	-477.2372131347656	457.2317504882812	-178.8119506835938	-876.8848266601562	68.83455657958984	-439.4730834960938	-516.754150390625	527.0831909179688	-169.4462280273438	-1019.119201660156	146.7029876708984	-325.5846252441406	-567.2396850585938	408.2294921875	-186.8495941162109	-602.6774291992188	479.2406921386719	-180.0880126953125	-951.0034790039062	165.843505859375	-413.3930053710938	-747.88037109375	350.2157287597656	-208.0125885009766	-664.6749877929688	176.8482971191406	-233.447265625	-796.5639038085938	389.0661315917969	-267.0235290527344	-803.7117919921875	364.0157165527344	-297.1284484863281	-820.8988647460938	375.9460754394531	-248.2315979003906	-1031.024536132812	144.1798248291016	-375.8192749023438
117	0.58	-512.3721923828125	1449.193969726562	-507.2408447265625	-521.2803344726562	1451.36279296875	-190.371337890625	-595.0875854492188	998.762451171875	-476.236083984375	-570.40478515625	992.6569213867188	-174.3052062988281	-543.4443359375	947.5228881835938	-464.4248352050781	-1008.182006835938	186.5737762451172	-356.8325805664062	-513.7125854492188	946.4503173828124	-206.0248718261719	-686.2673950195312	888.9688720703125	-461.4452209472656	-645.0162963867188	887.9032592773438	-159.6583404541016	-673.1453857421875	1040.627197265625	-322.2176818847656	-617.1605224609375	634.7113647460938	-477.8821105957031	-873.75	338.0326538085938	-447.3028259277344	-698.0910034179688	653.7000122070312	-478.1005554199219	-640.0765380859375	535.7381591796875	-455.4116821289062	-678.234375	213.5003814697266	-178.6739349365234	-816.6409912109375	418.1310119628906	-466.3163146972656	-722.1920776367188	557.9901123046875	-454.7458801269531	-397.6803283691406	696.388427734375	-164.6284484863281	-808.0889892578125	64.76959991455078	-385.378662109375	-468.5565490722656	660.196044921875	-157.8443756103516	-354.883544921875	605.9791259765625	-183.7433471679688	-429.3418273925781	571.566162109375	-176.4232635498047	-699.5023803710938	502.03466796875	-457.4969482421875	-394.7138671875	557.3562622070312	-176.3020629882812	-752.4217529296875	372.4510192871094	-459.0703430175781	-811.3728637695312	291.7999572753906	-445.1217041015625	-451.2239685058594	460.8895263671875	-178.7259368896484	-873.8987426757812	70.16556549072266	-440.5335998535156	-493.4063110351562	528.2256469726562	-170.7487030029297	-1011.096252441406	157.5404052734375	-327.5545349121094	-538.2913818359375	406.915771484375	-187.4531402587891	-578.0056762695312	475.9139404296875	-180.7490692138672	-942.6701049804688	171.9792938232422	-415.3914794921875	-715.868408203125	339.3825378417969	-209.2478485107422	-622.4203491210938	171.7097930908203	-232.8516845703125	-766.5272216796875	375.56103515625	-267.6064758300781	-770.7666625976562	350.4662475585938	-299.2916870117188	-790.3970336914062	361.4091491699219	-249.08154296875	-1023.305236816406	155.9041290283203	-377.8736267089844
